<?xml version="1.0" encoding="UTF-8"?>
<svg id="Capa_2" data-name="Capa 2" xmlns="http://www.w3.org/2000/svg" viewBox="0 0 119.24 119.24">
  <defs>
    <style>
      .cls-1 {
        fill: #f4f4f4;
        stroke: #000;
        stroke-miterlimit: 10;
        stroke-width: .25px;
      }
    </style>
  </defs>
  <g id="gráfico">
    <g>
      <path class="cls-1" d="M76.45,81.81c6.83,34.17-51.27,25.21-69.69,30.54,5.51-21.28-2.14-81.75,37.67-67.92C-.82,27.01,6.3,94.54.17,118.92c21.39-6.37,84.83,1.65,76.27-37.12Z"/>
      <path class="cls-1" d="M81.81,42.79c34.17-6.83,25.21,51.27,30.54,69.69-21.28-5.51-81.75,2.14-67.92-37.67-17.42,45.24,50.12,38.13,74.5,44.25-6.37-21.39,1.65-84.83-37.12-76.27Z"/>
      <path class="cls-1" d="M37.43,76.45C3.26,83.28,12.22,25.17,6.89,6.75c21.28,5.51,81.75-2.14,67.92,37.67C92.23-.82,24.7,6.3.31.17c6.37,21.39-1.65,84.83,37.12,76.27Z"/>
      <path class="cls-1" d="M42.79,37.43C35.96,3.26,94.06,12.22,112.49,6.89c-5.51,21.28,2.14,81.75-37.67,67.92C120.06,92.23,112.94,24.7,119.06.31c-21.39,6.37-84.83-1.65-76.27,37.12Z"/>
    </g>
  </g>
</svg>